C:\Users\Nicos\Documents\OpenSimProjects\SprintingProject\Study1\PredictiveResults\IC_pred_Sprinting_optimum_26-October-2023__22-16-26_p02_maxVel_01___HTD_Plus_4_GRF.mot
version=1
nRows=7
nColumns=127
inDegrees=yes
endheader
time	ground_force_vx	ground_force_vy	ground_force_vz	ground_force_px	ground_force_py	ground_force_pz	ground_torque_x	ground_torque_y	ground_torque_z	1_ground_force_vx	1_ground_force_vy	1_ground_force_vz	1_ground_force_px	1_ground_force_py	1_ground_force_pz	1_ground_torque_x	1_ground_torque_y	1_ground_torque_z	2_ground_force_vx	2_ground_force_vy	2_ground_force_vz	2_ground_force_px	2_ground_force_py	2_ground_force_pz	2_ground_torque_x	2_ground_torque_y	2_ground_torque_z	3_ground_force_vx	3_ground_force_vy	3_ground_force_vz	3_ground_force_px	3_ground_force_py	3_ground_force_pz	3_ground_torque_x	3_ground_torque_y	3_ground_torque_z	4_ground_force_vx	4_ground_force_vy	4_ground_force_vz	4_ground_force_px	4_ground_force_py	4_ground_force_pz	4_ground_torque_x	4_ground_torque_y	4_ground_torque_z	5_ground_force_vx	5_ground_force_vy	5_ground_force_vz	5_ground_force_px	5_ground_force_py	5_ground_force_pz	5_ground_torque_x	5_ground_torque_y	5_ground_torque_z	6_ground_force_vx	6_ground_force_vy	6_ground_force_vz	6_ground_force_px	6_ground_force_py	6_ground_force_pz	6_ground_torque_x	6_ground_torque_y	6_ground_torque_z	7_ground_force_vx	7_ground_force_vy	7_ground_force_vz	7_ground_force_px	7_ground_force_py	7_ground_force_pz	7_ground_torque_x	7_ground_torque_y	7_ground_torque_z	8_ground_force_vx	8_ground_force_vy	8_ground_force_vz	8_ground_force_px	8_ground_force_py	8_ground_force_pz	8_ground_torque_x	8_ground_torque_y	8_ground_torque_z	9_ground_force_vx	9_ground_force_vy	9_ground_force_vz	9_ground_force_px	9_ground_force_py	9_ground_force_pz	9_ground_torque_x	9_ground_torque_y	9_ground_torque_z	10_ground_force_vx	10_ground_force_vy	10_ground_force_vz	10_ground_force_px	10_ground_force_py	10_ground_force_pz	10_ground_torque_x	10_ground_torque_y	10_ground_torque_z	11_ground_force_vx	11_ground_force_vy	11_ground_force_vz	11_ground_force_px	11_ground_force_py	11_ground_force_pz	11_ground_torque_x	11_ground_torque_y	11_ground_torque_z	12_ground_force_vx	12_ground_force_vy	12_ground_force_vz	12_ground_force_px	12_ground_force_py	12_ground_force_pz	12_ground_torque_x	12_ground_torque_y	12_ground_torque_z	13_ground_force_vx	13_ground_force_vy	13_ground_force_vz	13_ground_force_px	13_ground_force_py	13_ground_force_pz	13_ground_torque_x	13_ground_torque_y	13_ground_torque_z
0.160511	-0.000000	0.000000	0.000000	0.528296	0.060360	0.397931	0.000000	0.000000	0.000000	-0.000000	0.000000	0.000000	0.532689	0.083064	0.417576	0.000000	0.000000	0.000000	-0.000000	0.000000	0.000000	0.540174	0.095165	0.414227	0.000000	0.000000	0.000000	-0.000000	0.000000	0.000000	0.539434	0.092822	0.392001	0.000000	0.000000	0.000000	-0.000000	0.000000	0.000000	0.543381	0.138929	0.441675	0.000000	0.000000	0.000000	-0.000000	0.000000	0.000000	0.540827	0.109837	0.408016	0.000000	0.000000	0.000000	-0.000000	0.000000	0.000000	0.543441	0.168523	0.383176	0.000000	0.000000	0.000000	-0.000000	0.000000	-0.000000	1.420758	0.127800	0.136226	0.000000	0.000000	0.000000	-0.000000	0.000000	-0.000000	1.391888	0.145758	0.117684	0.000000	0.000000	0.000000	-0.000000	0.000000	-0.000000	1.361844	0.153522	0.127020	0.000000	0.000000	0.000000	-0.000000	0.000000	-0.000000	1.357994	0.147775	0.146244	0.000000	0.000000	0.000000	-0.000000	0.000000	-0.000000	1.307498	0.188859	0.105189	0.000000	0.000000	0.000000	-0.000000	0.000000	-0.000000	1.338605	0.162506	0.133108	0.000000	0.000000	0.000000	-0.000000	0.000000	-0.000000	1.245649	0.198444	0.157460	0.000000	0.000000	0.000000
0.161159	-0.000000	0.000000	0.000000	0.532364	0.062549	0.397681	0.000000	0.000000	0.000000	-0.000000	0.000000	0.000000	0.537168	0.085214	0.417412	0.000000	0.000000	0.000000	-0.000000	0.000000	0.000000	0.544844	0.097309	0.414051	0.000000	0.000000	0.000000	-0.000000	0.000000	0.000000	0.544055	0.094991	0.391817	0.000000	0.000000	0.000000	-0.000000	0.000000	0.000000	0.548918	0.141027	0.441672	0.000000	0.000000	0.000000	-0.000000	0.000000	0.000000	0.545786	0.111982	0.407899	0.000000	0.000000	0.000000	-0.000000	0.000000	0.000000	0.549551	0.170677	0.383291	0.000000	0.000000	0.000000	-0.000000	0.000000	-0.000000	1.434579	0.126653	0.137032	0.000000	0.000000	0.000000	-0.000000	0.000000	-0.000000	1.405403	0.144461	0.118394	0.000000	0.000000	0.000000	-0.000000	0.000000	-0.000000	1.375241	0.152119	0.127706	0.000000	0.000000	0.000000	-0.000000	0.000000	-0.000000	1.371501	0.146390	0.146973	0.000000	0.000000	0.000000	-0.000000	0.000000	-0.000000	1.320306	0.187198	0.105686	0.000000	0.000000	0.000000	-0.000000	0.000000	-0.000000	1.351863	0.161020	0.133755	0.000000	0.000000	0.000000	-0.000000	0.000000	-0.000000	1.258352	0.196622	0.157950	0.000000	0.000000	0.000000
0.163207	-0.000000	0.000000	0.000000	0.545516	0.069544	0.396596	0.000000	0.000000	0.000000	-0.000000	0.000000	0.000000	0.551595	0.092058	0.416666	0.000000	0.000000	0.000000	-0.000000	0.000000	0.000000	0.559891	0.104129	0.413316	0.000000	0.000000	0.000000	-0.000000	0.000000	0.000000	0.558979	0.101910	0.391046	0.000000	0.000000	0.000000	-0.000000	0.000000	0.000000	0.566673	0.147657	0.441606	0.000000	0.000000	0.000000	-0.000000	0.000000	0.000000	0.561757	0.118804	0.407389	0.000000	0.000000	0.000000	-0.000000	0.000000	0.000000	0.569221	0.177503	0.383680	0.000000	0.000000	0.000000	-0.000000	0.000000	-0.000000	1.478304	0.123082	0.139639	0.000000	0.000000	0.000000	-0.000000	0.000000	-0.000000	1.448186	0.140410	0.120690	0.000000	0.000000	0.000000	-0.000000	0.000000	-0.000000	1.417670	0.147737	0.129921	0.000000	0.000000	0.000000	-0.000000	0.000000	-0.000000	1.414275	0.142072	0.149327	0.000000	0.000000	0.000000	-0.000000	0.000000	-0.000000	1.360920	0.181985	0.107281	0.000000	0.000000	0.000000	-0.000000	0.000000	-0.000000	1.393867	0.156373	0.135841	0.000000	0.000000	0.000000	-0.000000	0.000000	-0.000000	1.298655	0.190920	0.159518	0.000000	0.000000	0.000000
0.164691	-0.000000	0.000000	0.000000	0.555377	0.074679	0.395584	0.000000	0.000000	0.000000	-0.000000	0.000000	0.000000	0.562351	0.097062	0.415950	0.000000	0.000000	0.000000	-0.000000	0.000000	0.000000	0.571105	0.109111	0.412647	0.000000	0.000000	0.000000	-0.000000	0.000000	0.000000	0.570135	0.106974	0.390348	0.000000	0.000000	0.000000	-0.000000	0.000000	0.000000	0.579800	0.152459	0.441513	0.000000	0.000000	0.000000	-0.000000	0.000000	0.000000	0.573646	0.123780	0.406914	0.000000	0.000000	0.000000	-0.000000	0.000000	0.000000	0.583810	0.182454	0.383980	0.000000	0.000000	0.000000	-0.000000	0.000000	-0.000000	1.510033	0.120556	0.141572	0.000000	0.000000	0.000000	-0.000000	0.000000	-0.000000	1.479258	0.137528	0.122391	0.000000	0.000000	0.000000	-0.000000	0.000000	-0.000000	1.448501	0.144617	0.131561	0.000000	0.000000	0.000000	-0.000000	0.000000	-0.000000	1.445348	0.139006	0.151070	0.000000	0.000000	0.000000	-0.000000	0.000000	-0.000000	1.390480	0.178250	0.108457	0.000000	0.000000	0.000000	-0.000000	0.000000	-0.000000	1.424402	0.153063	0.137383	0.000000	0.000000	0.000000	-0.000000	0.000000	-0.000000	1.328006	0.186848	0.160672	0.000000	0.000000	0.000000
0.165340	-0.000000	0.000000	0.000000	0.559782	0.076936	0.395098	0.000000	0.000000	0.000000	-0.000000	0.000000	0.000000	0.567137	0.099257	0.415602	0.000000	0.000000	0.000000	-0.000000	0.000000	0.000000	0.576091	0.111295	0.412329	0.000000	0.000000	0.000000	-0.000000	0.000000	0.000000	0.575104	0.109196	0.390016	0.000000	0.000000	0.000000	-0.000000	0.000000	0.000000	0.585605	0.154554	0.441463	0.000000	0.000000	0.000000	-0.000000	0.000000	0.000000	0.578926	0.125959	0.406686	0.000000	0.000000	0.000000	-0.000000	0.000000	0.000000	0.590266	0.184614	0.384114	0.000000	0.000000	0.000000	-0.000000	0.000000	-0.000000	1.523896	0.119471	0.142424	0.000000	0.000000	0.000000	-0.000000	0.000000	-0.000000	1.492839	0.136285	0.123141	0.000000	0.000000	0.000000	-0.000000	0.000000	-0.000000	1.461980	0.143272	0.132284	0.000000	0.000000	0.000000	-0.000000	0.000000	-0.000000	1.458932	0.137686	0.151838	0.000000	0.000000	0.000000	-0.000000	0.000000	-0.000000	1.403417	0.176633	0.108975	0.000000	0.000000	0.000000	-0.000000	0.000000	-0.000000	1.437755	0.151635	0.138063	0.000000	0.000000	0.000000	-0.000000	0.000000	-0.000000	1.340854	0.185086	0.161178	0.000000	0.000000	0.000000
0.167388	-0.000000	0.000000	0.000000	0.574163	0.084104	0.393483	0.000000	0.000000	0.000000	-0.000000	0.000000	0.000000	0.582673	0.106216	0.414436	0.000000	0.000000	0.000000	-0.000000	0.000000	0.000000	0.592255	0.118211	0.411281	0.000000	0.000000	0.000000	-0.000000	0.000000	0.000000	0.591236	0.116234	0.388924	0.000000	0.000000	0.000000	-0.000000	0.000000	0.000000	0.604256	0.161166	0.441284	0.000000	0.000000	0.000000	-0.000000	0.000000	0.000000	0.595999	0.132851	0.405931	0.000000	0.000000	0.000000	-0.000000	0.000000	0.000000	0.610973	0.191413	0.384534	0.000000	0.000000	0.000000	-0.000000	0.000000	-0.000000	1.567700	0.116120	0.145127	0.000000	0.000000	0.000000	-0.000000	0.000000	-0.000000	1.535786	0.132433	0.125522	0.000000	0.000000	0.000000	-0.000000	0.000000	-0.000000	1.504618	0.139097	0.134579	0.000000	0.000000	0.000000	-0.000000	0.000000	-0.000000	1.501890	0.133595	0.154276	0.000000	0.000000	0.000000	-0.000000	0.000000	-0.000000	1.444388	0.171590	0.110622	0.000000	0.000000	0.000000	-0.000000	0.000000	-0.000000	1.480006	0.147197	0.140221	0.000000	0.000000	0.000000	-0.000000	0.000000	-0.000000	1.381559	0.179596	0.162787	0.000000	0.000000	0.000000
0.168872	-0.000000	0.000000	0.000000	0.585058	0.089316	0.392333	0.000000	0.000000	0.000000	-0.000000	0.000000	0.000000	0.594363	0.111272	0.413603	0.000000	0.000000	0.000000	-0.000000	0.000000	0.000000	0.604387	0.123228	0.410539	0.000000	0.000000	0.000000	-0.000000	0.000000	0.000000	0.603355	0.121337	0.388154	0.000000	0.000000	0.000000	-0.000000	0.000000	0.000000	0.618096	0.165948	0.441154	0.000000	0.000000	0.000000	-0.000000	0.000000	0.000000	0.608762	0.137844	0.405398	0.000000	0.000000	0.000000	-0.000000	0.000000	0.000000	0.626262	0.196305	0.384831	0.000000	0.000000	0.000000	-0.000000	0.000000	-0.000000	1.599432	0.113774	0.147090	0.000000	0.000000	0.000000	-0.000000	0.000000	-0.000000	1.566921	0.129718	0.127254	0.000000	0.000000	0.000000	-0.000000	0.000000	-0.000000	1.535540	0.136150	0.136248	0.000000	0.000000	0.000000	-0.000000	0.000000	-0.000000	1.533037	0.130713	0.156047	0.000000	0.000000	0.000000	-0.000000	0.000000	-0.000000	1.474146	0.168005	0.111823	0.000000	0.000000	0.000000	-0.000000	0.000000	-0.000000	1.510658	0.144059	0.141790	0.000000	0.000000	0.000000	-0.000000	0.000000	-0.000000	1.411133	0.175694	0.163957	0.000000	0.000000	0.000000
